<?xml version="1.0" encoding="UTF-8"?><svg xmlns="http://www.w3.org/2000/svg" xmlns:xlink="http://www.w3.org/1999/xlink" contentScriptType="text/ecmascript" width="224.87999" zoomAndPan="magnify" contentStyleType="text/css" viewBox="0 0 224.87999 225" height="225" preserveAspectRatio="xMidYMid meet" version="1.0"><defs><clipPath id="clip-0"><path d="M 126 17.640625 L 224.761719 17.640625 L 224.761719 155 L 126 155 Z M 126 17.640625 " clip-rule="nonzero"/></clipPath><clipPath id="clip-1"><path d="M 0 57 L 113 57 L 113 207.289062 L 0 207.289062 Z M 0 57 " clip-rule="nonzero"/></clipPath><clipPath id="clip-2"><path d="M 59 42 L 224.761719 42 L 224.761719 207.289062 L 59 207.289062 Z M 59 42 " clip-rule="nonzero"/></clipPath></defs><g clip-path="url(#clip-0)"><path fill="rgb(0%, 80.389404%, 72.938538%)" d="M 172.125 17.539062 C 152.5625 17.539062 135.453125 28.257812 126.34375 44.148438 C 133.1875 46.007812 139.589844 49.246094 145.207031 53.722656 C 150.792969 44.699219 160.769531 38.675781 172.125 38.675781 C 189.578125 38.675781 203.777344 52.898438 203.777344 70.378906 L 203.777344 111.898438 L 209.425781 117.558594 C 219.390625 127.539062 224.878906 140.808594 224.878906 154.921875 L 224.878906 70.378906 C 224.878906 41.242188 201.214844 17.539062 172.125 17.539062 Z M 172.125 17.539062 " fill-opacity="1" fill-rule="nonzero"/></g><path fill="rgb(100%, 100%, 100%)" d="M 77.089844 55.917969 C 77.128906 55.878906 77.171875 55.84375 77.214844 55.808594 C 77.171875 55.84375 77.128906 55.878906 77.089844 55.917969 Z M 77.089844 55.917969 " fill-opacity="1" fill-rule="nonzero"/><path fill="rgb(100%, 100%, 100%)" d="M 76.09375 56.84375 C 76.1875 56.757812 76.28125 56.671875 76.375 56.585938 C 76.28125 56.671875 76.1875 56.757812 76.09375 56.84375 Z M 76.09375 56.84375 " fill-opacity="1" fill-rule="nonzero"/><path fill="rgb(100%, 100%, 100%)" d="M 75.136719 57.777344 C 75.265625 57.648438 75.394531 57.523438 75.527344 57.394531 C 75.394531 57.523438 75.265625 57.648438 75.136719 57.777344 C 75.132812 57.78125 75.125 57.792969 75.117188 57.796875 Z M 75.136719 57.777344 " fill-opacity="1" fill-rule="nonzero"/><g clip-path="url(#clip-1)"><path fill="rgb(6.269836%, 58.81958%, 90.19928%)" d="M 15.453125 192.28125 C 25.417969 202.261719 38.664062 207.757812 52.753906 207.757812 C 66.84375 207.757812 80.089844 202.261719 90.058594 192.28125 L 112.441406 169.863281 L 97.515625 154.921875 L 75.132812 177.339844 C 69.15625 183.328125 61.203125 186.625 52.75 186.625 C 44.292969 186.625 36.34375 183.328125 30.367188 177.339844 C 24.394531 171.351562 21.101562 163.390625 21.101562 154.921875 C 21.101562 146.453125 24.394531 138.488281 30.371094 132.5 L 60.234375 102.59375 C 57.996094 86.710938 62.953125 69.992188 75.113281 57.796875 L 15.453125 117.558594 C 5.488281 127.539062 0 140.808594 0 154.921875 C 0 169.035156 5.488281 182.304688 15.453125 192.28125 Z M 15.453125 192.28125 " fill-opacity="1" fill-rule="nonzero"/></g><path fill="rgb(100%, 100%, 100%)" d="M 75.523438 57.394531 C 75.714844 57.210938 75.898438 57.023438 76.089844 56.84375 C 75.90625 57.023438 75.714844 57.210938 75.523438 57.394531 Z M 75.523438 57.394531 " fill-opacity="1" fill-rule="nonzero"/><path fill="rgb(100%, 100%, 100%)" d="M 76.371094 56.585938 C 76.609375 56.359375 76.847656 56.136719 77.089844 55.917969 C 76.847656 56.136719 76.609375 56.359375 76.371094 56.585938 Z M 76.371094 56.585938 " fill-opacity="1" fill-rule="nonzero"/><g clip-path="url(#clip-2)"><path fill="rgb(100%, 100%, 100%)" d="M 209.425781 117.558594 L 203.777344 111.898438 L 149.742188 57.777344 C 149.640625 57.675781 149.542969 57.582031 149.441406 57.480469 C 149.222656 57.265625 149.003906 57.050781 148.785156 56.835938 C 148.699219 56.757812 148.617188 56.679688 148.53125 56.605469 C 148.285156 56.371094 148.035156 56.140625 147.789062 55.914062 C 147.753906 55.878906 147.71875 55.851562 147.683594 55.816406 C 146.875 55.085938 146.046875 54.390625 145.207031 53.722656 C 145.207031 53.722656 145.207031 53.722656 145.207031 53.71875 C 139.589844 49.242188 133.1875 46.003906 126.34375 44.140625 C 126.339844 44.152344 126.335938 44.160156 126.328125 44.171875 C 121.789062 42.941406 117.117188 42.320312 112.445312 42.320312 C 99.828125 42.320312 87.207031 46.8125 77.214844 55.800781 C 77.175781 55.839844 77.132812 55.875 77.089844 55.914062 C 76.847656 56.132812 76.609375 56.355469 76.371094 56.582031 C 76.28125 56.667969 76.1875 56.75 76.089844 56.835938 C 75.898438 57.019531 75.710938 57.207031 75.523438 57.390625 C 75.394531 57.519531 75.261719 57.644531 75.132812 57.773438 L 75.113281 57.792969 C 62.953125 69.988281 57.988281 86.703125 60.234375 102.585938 C 61.777344 113.535156 66.746094 124.089844 75.136719 132.496094 L 97.519531 154.914062 L 112.445312 169.859375 L 134.828125 192.277344 L 134.847656 192.257812 L 134.828125 192.277344 C 144.140625 201.605469 156.320312 207.015625 169.375 207.683594 C 169.390625 207.683594 169.410156 207.683594 169.425781 207.6875 C 169.808594 207.707031 170.195312 207.722656 170.585938 207.730469 C 170.652344 207.730469 170.71875 207.734375 170.78125 207.742188 C 171.230469 207.75 171.675781 207.757812 172.128906 207.757812 C 172.582031 207.757812 173.03125 207.753906 173.476562 207.742188 C 173.542969 207.742188 173.613281 207.734375 173.671875 207.730469 C 174.058594 207.722656 174.449219 207.707031 174.835938 207.6875 C 174.851562 207.6875 174.867188 207.6875 174.882812 207.683594 C 187.941406 207.015625 200.121094 201.605469 209.433594 192.277344 C 218.746094 182.949219 224.144531 170.75 224.8125 157.671875 C 224.8125 157.660156 224.8125 157.640625 224.816406 157.625 C 224.835938 157.238281 224.851562 156.851562 224.859375 156.460938 C 224.859375 156.394531 224.867188 156.332031 224.871094 156.265625 C 224.878906 155.816406 224.890625 155.367188 224.890625 154.914062 C 224.878906 140.808594 219.390625 127.539062 209.425781 117.558594 Z M 203.738281 156.539062 C 203.734375 156.613281 203.726562 156.691406 203.722656 156.765625 C 203.691406 157.230469 203.664062 157.699219 203.617188 158.15625 C 203.617188 158.167969 203.613281 158.183594 203.613281 158.199219 C 202.082031 173.066406 190.25 184.921875 175.402344 186.457031 C 175.386719 186.457031 175.371094 186.460938 175.355469 186.460938 C 174.898438 186.507812 174.4375 186.542969 173.96875 186.566406 C 173.890625 186.570312 173.816406 186.582031 173.738281 186.585938 C 173.207031 186.613281 172.667969 186.628906 172.125 186.628906 C 171.582031 186.628906 171.046875 186.613281 170.511719 186.585938 C 170.433594 186.582031 170.359375 186.570312 170.28125 186.566406 C 169.820312 186.539062 169.359375 186.507812 168.894531 186.460938 C 168.882812 186.460938 168.863281 186.457031 168.847656 186.457031 C 161.632812 185.71875 154.945312 182.550781 149.742188 177.339844 L 127.359375 154.921875 L 119.367188 146.914062 L 112.433594 139.972656 L 90.050781 117.554688 C 77.714844 105.195312 77.710938 85.09375 90.042969 72.730469 C 90.046875 72.726562 90.046875 72.726562 90.050781 72.71875 C 90.136719 72.632812 90.222656 72.558594 90.308594 72.476562 C 90.609375 72.1875 90.910156 71.890625 91.21875 71.613281 C 91.304688 71.53125 91.394531 71.460938 91.484375 71.382812 C 91.804688 71.101562 92.121094 70.828125 92.449219 70.558594 C 92.480469 70.535156 92.511719 70.511719 92.542969 70.484375 C 98.160156 65.921875 105.105469 63.4375 112.433594 63.4375 C 114.921875 63.4375 117.359375 63.726562 119.71875 64.28125 C 124.265625 65.347656 128.515625 67.414062 132.199219 70.378906 C 132.246094 70.417969 132.292969 70.449219 132.335938 70.488281 C 132.367188 70.511719 132.394531 70.53125 132.421875 70.554688 C 132.753906 70.828125 133.078125 71.109375 133.398438 71.394531 C 133.480469 71.464844 133.566406 71.539062 133.648438 71.609375 C 133.96875 71.90625 134.289062 72.210938 134.605469 72.519531 C 134.671875 72.585938 134.742188 72.648438 134.808594 72.714844 L 140.457031 78.375 L 164.65625 102.609375 L 194.496094 132.496094 C 200.472656 138.484375 203.765625 146.445312 203.765625 154.914062 C 203.777344 155.464844 203.765625 156.003906 203.738281 156.539062 Z M 203.738281 156.539062 " fill-opacity="1" fill-rule="nonzero"/></g></svg>